<svg height="62.341" viewBox="0 0 62 62.341" width="62" xmlns="http://www.w3.org/2000/svg" xmlns:xlink="http://www.w3.org/1999/xlink"><filter id="a" filterUnits="userSpaceOnUse" height="62.341" width="62" x="0" y="0"><feOffset dy="2"/><feGaussianBlur result="blur" stdDeviation="2"/><feFlood flood-opacity=".204"/><feComposite in2="blur" operator="in"/><feComposite in="SourceGraphic"/></filter><filter id="b" filterUnits="userSpaceOnUse" height="62.341" width="62" x="0" y="0"><feOffset dy="2"/><feGaussianBlur result="blur-2" stdDeviation="2"/><feFlood flood-opacity=".204"/><feComposite in2="blur-2" operator="in"/><feComposite in="SourceGraphic"/></filter><g filter="url(#a)"><ellipse cx="25" cy="25.17" fill="#0093dd" rx="25" ry="25.17" transform="translate(6 4)"/></g><g filter="url(#b)"><ellipse cx="25" cy="25.17" fill="#2f65e5" rx="25" ry="25.17" transform="translate(6 4)"/></g><g fill="#fcfcfc"><path d="m.184 1.552c3.431 2.965 9.452 8.18 11.221 9.807a1.031 1.031 0 0 0 1.512 0c1.771-1.628 7.792-6.844 11.223-9.809a.539.539 0 0 0 .073-.733 2.054 2.054 0 0 0 -1.634-.817h-20.833a2.054 2.054 0 0 0 -1.635.819.538.538 0 0 0 .073.733z" transform="translate(19.338 19.102)"/><path d="m8.177.05a.51.51 0 0 0 -.555.077c-2.247 1.943-5.208 4.51-7.441 6.473a.538.538 0 0 0 .019.814c2.075 1.7 5.2 4.027 7.459 5.685a.511.511 0 0 0 .542.041.532.532 0 0 0 .283-.473v-12.135a.532.532 0 0 0 -.307-.482z" transform="translate(35.521 22.211)"/><path d="m.825 13.1c2.258-1.657 5.385-3.989 7.46-5.685a.538.538 0 0 0 .015-.815c-2.234-1.963-5.2-4.531-7.442-6.474a.513.513 0 0 0 -.558-.077.532.532 0 0 0 -.3.482v12.136a.532.532 0 0 0 .283.473.511.511 0 0 0 .542-.04z" transform="translate(19 22.212)"/><path d="m23.941 6.663c-2.181-1.591-6.198-4.563-8.595-6.544a.514.514 0 0 0 -.67.012c-.47.419-.864.772-1.143 1.028a2.079 2.079 0 0 1 -2.907 0c-.279-.259-.673-.611-1.144-1.028a.511.511 0 0 0 -.67-.012c-2.389 1.981-6.412 4.95-8.594 6.544a.538.538 0 0 0 -.078.794 2.068 2.068 0 0 0 1.523.682h20.837a2.071 2.071 0 0 0 1.523-.682.538.538 0 0 0 -.078-.794z" transform="translate(19.421 30.092)"/></g></svg>