<svg xmlns="http://www.w3.org/2000/svg" width="231.106" height="54.81" viewBox="0 0 231.106 54.81">
  <g id="Logo" transform="translate(-380 -34)">
    <g id="Logo-2" data-name="Logo" transform="translate(380 34)">
      <path id="Path_1" data-name="Path 1" d="M123.833,106.853a11.542,11.542,0,0,0-6.39-3.32q.013-.356.013-.71A19.5,19.5,0,0,0,78.8,99.142,13.825,13.825,0,0,0,81.078,126.6c.164,0,.334,0,.528-.011.157.008.306.011.453.011h7.781a1.587,1.587,0,1,0,0-3.174H82.06c-.113,0-.229,0-.357-.011l-.079,0-.079,0c-.18.008-.329.011-.467.011a10.651,10.651,0,0,1-.78-21.273l1.3-.094.162-1.292a16.327,16.327,0,0,1,32.524,2.051,16.583,16.583,0,0,1-.117,1.958l-.208,1.742,1.754.033a8.438,8.438,0,0,1-.163,16.875c-.2,0-.411-.008-.623-.023l-.12-.009-.12.01c-.193.015-.36.023-.511.023h-7.945a1.587,1.587,0,1,0,0,3.174h7.945c.2,0,.411-.008.64-.024.248.016.494.024.734.024a11.613,11.613,0,0,0,8.285-19.751Z" transform="translate(-67.252 -83.322)" fill="#180e47"/>
      <path id="Path_2" data-name="Path 2" d="M213.987,220.485a1.587,1.587,0,0,0,1.122-2.709l-8.934-8.934-8.934,8.934a1.587,1.587,0,0,0,2.245,2.244l5.1-5.1v27.226a1.587,1.587,0,1,0,3.174,0V214.918l5.1,5.1A1.582,1.582,0,0,0,213.987,220.485Z" transform="translate(-176.22 -188.921)" fill="#180e47"/>
    </g>
    <g id="Group_5" data-name="Group 5" transform="translate(460.232 42.357)">
      <text id="Cloud" transform="translate(0 29)" fill="#180e47" font-size="30" font-family="FuturaPT-Book, Futura PT"><tspan x="0" y="0">Cloud</tspan></text>
      <text id="Share" transform="translate(71.874 29)" fill="#180e47" font-size="30" font-family="FuturaPT-Heavy, Futura PT" font-weight="800"><tspan x="0" y="0">Share</tspan></text>
    </g>
  </g>
</svg>
