<?xml version="1.0" encoding="utf-8"?>
<!-- Generator: Adobe Illustrator 23.0.2, SVG Export Plug-In . SVG Version: 6.00 Build 0)  -->
<svg version="1.1" id="Layer_1" xmlns="http://www.w3.org/2000/svg" xmlns:xlink="http://www.w3.org/1999/xlink" x="0px" y="0px"
	 viewBox="0 0 841.9 417.4" style="enable-background:new 0 0 841.9 417.4;" xml:space="preserve">
<style type="text/css">
	.st0{fill:#FF0000;}
	.st1{fill:#FFFFFF;}
</style>
<g>
	<path d="M13.4,14h23.7v72.7h90.8V14h23.7V189h-23.7v-80.1H37.1V189H13.4V14z"/>
	<path d="M251.5,14H273L347.9,189h-27.7l-17.6-43.3h-83.3L202,189h-27.7L251.5,14z M294,125l-32.6-80.4h-0.5L227.8,125H294z"/>
	<path d="M384.5,36.2h-56.4V14h136.5v22.3h-56.4V189h-23.7V36.2z"/>
	<path d="M489.9,14h113v22.3h-89.3v52.2h83.1v22.2h-83.1v56.1h93.7V189H489.9V14z"/>
	<g>
		<path d="M13.4,223.8h40.2v68h78.1v-68H172v182.3h-40.2v-78.8H53.6v78.8H13.4V223.8z"/>
		<path d="M363,333.1c0,10.5-1.6,20.3-4.9,29.1c-3.3,8.9-8.1,16.6-14.6,23.1c-6.4,6.5-14.5,11.6-24.1,15.3
			c-9.6,3.7-20.7,5.5-33.3,5.5c-12.7,0-23.9-1.8-33.5-5.5c-9.6-3.7-17.7-8.8-24.1-15.3c-6.4-6.5-11.3-14.2-14.6-23.1
			c-3.3-8.9-4.9-18.6-4.9-29.1V223.8h40.2v107.7c0,5.5,0.9,10.6,2.7,15.3c1.8,4.7,4.3,8.7,7.6,12.2c3.3,3.4,7.2,6.1,11.7,8
			c4.6,1.9,9.5,2.9,14.8,2.9c5.3,0,10.2-1,14.7-2.9c4.5-1.9,8.3-4.6,11.6-8c3.3-3.4,5.8-7.5,7.6-12.2c1.8-4.7,2.7-9.8,2.7-15.3
			V223.8H363V333.1z"/>
		<path d="M400.2,223.8h70.7c9.3,0,18.1,0.9,26.4,2.7c8.3,1.8,15.6,4.8,21.9,9c6.3,4.2,11.3,9.9,15,17c3.7,7.1,5.5,16,5.5,26.6
			c0,12.9-3.4,23.8-10.1,32.8s-16.5,14.7-29.4,17.1l46.4,77h-48.2l-38.2-72.9h-19.9v72.9h-40.2V223.8z M440.4,299.3h23.7
			c3.6,0,7.4-0.1,11.5-0.4c4-0.3,7.7-1,11-2.3c3.3-1.3,6-3.3,8.1-6c2.1-2.7,3.2-6.6,3.2-11.6c0-4.6-0.9-8.3-2.8-11.1
			c-1.9-2.7-4.3-4.8-7.2-6.3c-2.9-1.5-6.3-2.4-10.1-3c-3.8-0.5-7.5-0.8-11.1-0.8h-26.3V299.3z"/>
		<path d="M598,259.4h-52.1v-35.5h144.4v35.5h-52.1v146.7H598V259.4z"/>
		<path d="M800.9,267.2c-3.3-4-7.7-7-13.3-8.9c-5.6-1.9-10.9-2.9-15.9-2.9c-2.9,0-5.9,0.3-9,1c-3.1,0.7-6,1.7-8.8,3.1
			c-2.8,1.4-5,3.3-6.7,5.7c-1.7,2.3-2.6,5.2-2.6,8.5c0,5.4,2.1,9.5,6.2,12.3c4.1,2.8,9.3,5.3,15.6,7.3c6.3,2,13,4,20.2,6
			c7.2,2,14,4.9,20.2,8.5c6.3,3.7,11.5,8.6,15.6,14.8c4.1,6.2,6.2,14.5,6.2,24.9c0,9.9-1.9,18.5-5.7,25.9
			c-3.8,7.4-8.9,13.5-15.3,18.3c-6.4,4.9-13.9,8.5-22.4,10.8c-8.5,2.3-17.5,3.5-26.9,3.5c-11.9,0-22.9-1.8-33-5.3
			c-10.1-3.5-19.6-9.2-28.4-17.1l28.6-30.6c4.1,5.4,9.3,9.5,15.6,12.4c6.3,2.9,12.8,4.4,19.5,4.4c3.3,0,6.6-0.4,9.9-1.1
			c3.4-0.8,6.4-1.9,9-3.4c2.7-1.5,4.8-3.4,6.4-5.8c1.6-2.3,2.4-5.1,2.4-8.3c0-5.4-2.1-9.6-6.3-12.7c-4.2-3.1-9.5-5.7-15.9-7.9
			c-6.4-2.2-13.2-4.4-20.6-6.5c-7.4-2.2-14.3-5.1-20.6-8.8c-6.4-3.7-11.6-8.5-15.9-14.6c-4.2-6-6.3-14-6.3-23.9
			c0-9.5,1.9-17.9,5.8-25.1c3.9-7.2,9-13.2,15.5-18.1c6.4-4.9,13.9-8.5,22.3-10.9c8.4-2.4,17.1-3.6,26-3.6c10.3,0,20.3,1.4,29.9,4.3
			c9.6,2.8,18.3,7.6,26,14.3L800.9,267.2z"/>
	</g>
	<rect x="654.3" y="14.2" class="st0" width="174.6" height="174.6"/>
	<path class="st1" d="M777.8,130.2c0,20-16.2,36.2-36.2,36.2c-20,0-36.2-16.2-36.2-36.2s28.1-75.3,36.2-93.6
		C742.4,34.8,777.8,110.2,777.8,130.2z"/>
</g>
</svg>
