<svg width="1439" height="463" viewBox="0 0 1439 463" fill="none" xmlns="http://www.w3.org/2000/svg">
<ellipse opacity="0.8" cx="437.877" cy="48.861" rx="48.815" ry="48.861" fill="#000D3A"/>
<ellipse opacity="0.8" cx="105.766" cy="356.419" rx="105.766" ry="105.866" fill="#000D3A"/>
<ellipse opacity="0.8" cx="270.931" cy="235.999" rx="180.15" ry="180.32" fill="#000D3A"/>
<path d="M593.299 197.182C593.299 191.229 597.542 186.507 602.902 186.507C604.749 186.507 606.597 187.123 608.079 188.15C612.139 191.229 616.77 193.076 622.495 193.076C635.792 193.076 644.117 183.223 644.117 168.238V85.921C644.117 79.3521 648.93 73.8096 654.837 73.8096C660.745 73.8096 665.74 79.3521 665.74 85.921V168.648C665.74 199.85 647.995 214.425 624.182 214.425C614.397 214.425 605.525 211.962 597.587 206.009C595.01 203.956 593.345 200.877 593.345 197.182H593.299Z" fill="#000D3A"/>
<path d="M725.932 85.921C725.932 79.3521 730.996 73.8096 737.428 73.8096C743.86 73.8096 748.923 79.3521 748.923 85.921V157.153C748.923 178.912 760.419 193.076 782.269 193.076C804.12 193.076 815.41 178.912 815.41 157.153V85.921C815.41 79.3521 820.474 73.8096 826.906 73.8096C833.338 73.8096 838.402 79.3521 838.402 85.921V157.768C838.402 191.845 819.881 214.425 782.247 214.425C744.612 214.425 725.886 191.639 725.886 157.974V85.921H725.932Z" fill="#000D3A"/>
<path d="M895.15 190.407C895.15 184.043 899.78 178.911 905.322 178.911C907.717 178.911 909.93 179.732 911.595 181.169C920.102 188.149 930.617 193.075 943.55 193.075C961.295 193.075 968.297 183.427 968.297 174.395C968.297 162.078 955.182 158.383 940.22 154.072C920.08 148.53 896.427 141.961 896.427 113.017C896.427 90.4363 914.355 72.9876 943.162 72.9876C957.577 72.9876 969.209 77.0932 981.207 85.5096C983.967 87.3571 985.837 90.8468 985.837 94.7471C985.837 100.905 981.207 106.037 975.664 106.037C973.452 106.037 971.422 105.216 969.939 103.985C961.067 97.4157 950.734 94.3366 941.314 94.3366C926.717 94.3366 918.597 101.111 918.597 111.375C918.597 121.639 931.165 125.539 945.762 129.644C966.085 135.392 990.285 142.372 990.285 172.137C990.285 194.923 975.87 214.424 942.615 214.424C924.322 214.424 910.112 208.676 899.21 199.439C896.815 197.386 895.15 194.102 895.15 190.407Z" fill="#000D3A"/>
<path d="M1071.12 201.081V96.1838H1039.73C1034.1 96.1838 1029.26 91.4624 1029.26 85.7146C1029.26 79.9668 1034.1 75.0402 1039.73 75.0402H1126.04C1131.68 75.0402 1136.51 79.7616 1136.51 85.7146C1136.51 91.6677 1131.68 96.1838 1126.04 96.1838H1094.66V201.081C1094.66 207.65 1089.43 213.192 1082.98 213.192C1076.52 213.192 1071.12 207.65 1071.12 201.081V201.081Z" fill="#000D3A"/>
<path d="M1207.24 199.028C1205.21 196.976 1203.91 194.102 1203.91 191.023C1203.91 185.07 1208.15 180.348 1213.51 180.348C1215.54 180.348 1217.57 181.169 1219.24 182.606C1227.36 189.38 1237.35 193.075 1247.5 193.075C1263.76 193.075 1273.18 184.864 1273.18 172.137C1273.18 158.589 1263.4 152.841 1245.83 152.841H1240.11C1234.93 152.841 1230.51 148.119 1230.51 142.166C1230.51 136.213 1234.93 131.697 1240.11 131.697H1245.83C1260.25 131.697 1271.15 126.155 1271.15 113.633C1271.15 101.111 1260.07 94.3366 1246.22 94.3366C1236.44 94.3366 1227.93 97.621 1220.17 103.985C1218.69 105.216 1216.66 106.037 1214.63 106.037C1209.64 106.037 1205.58 101.521 1205.58 95.9788C1205.58 92.8996 1207.06 90.231 1208.91 88.3835C1218.69 79.146 1231.62 72.9876 1248.25 72.9876C1274.85 72.9876 1292.77 86.9465 1292.77 109.938C1292.77 128.207 1278.72 138.882 1266 141.345C1277.99 142.577 1294.62 153.457 1294.62 174.6C1294.62 197.797 1276.69 214.424 1248.25 214.424C1230.71 214.424 1216.84 208.061 1207.24 199.028V199.028Z" fill="#000D3A"/>
<path d="M628.014 417.763V312.866H596.652C591.019 312.866 586.183 308.145 586.183 302.397C586.183 296.649 591.019 291.723 596.652 291.723H682.938C688.571 291.723 693.407 296.444 693.407 302.397C693.407 308.35 688.571 312.866 682.938 312.866H651.553V417.763C651.553 424.332 646.33 429.875 639.875 429.875C633.42 429.875 628.014 424.332 628.014 417.763V417.763Z" fill="#000D3A"/>
<path d="M834.342 417.765V368.908H766.668V417.765C766.668 424.333 761.605 429.876 755.355 429.876C749.106 429.876 743.86 424.333 743.86 417.765V302.603C743.86 296.035 748.923 290.492 755.173 290.492C761.422 290.492 766.668 296.035 766.668 302.603V347.765H834.342V302.603C834.342 296.035 839.405 290.492 845.837 290.492C852.269 290.492 857.15 296.035 857.15 302.603V417.765C857.15 424.333 852.087 429.876 845.655 429.876C839.223 429.876 834.342 424.333 834.342 417.765V417.765Z" fill="#000D3A"/>
<path d="M919.236 417.765V302.603C919.236 296.035 924.048 290.492 930.138 290.492C936.228 290.492 940.858 296.035 940.858 302.603V417.765C940.858 424.333 936.046 429.876 930.138 429.876C924.231 429.876 919.236 424.333 919.236 417.765Z" fill="#000D3A"/>
<path d="M1100.63 423.718L1030.66 328.879V417.765C1030.66 424.333 1025.16 429.876 1018.39 429.876C1011.61 429.876 1005.91 424.333 1005.91 417.765V306.298C1005.91 297.677 1013.09 290.492 1022.19 290.492C1027.49 290.492 1032.34 292.955 1035.31 297.061L1103.39 388.82V302.603C1103.39 296.035 1108.89 290.492 1115.66 290.492C1122.44 290.492 1128.14 296.035 1128.14 302.603V415.096C1128.14 423.102 1121.37 429.876 1112.93 429.876C1107.86 429.876 1103.42 427.618 1100.66 423.718H1100.63Z" fill="#000D3A"/>
<path d="M1301.01 367.881V397.236C1301.01 403.6 1299.37 408.527 1294.44 412.837C1281.51 424.128 1264.88 431.312 1244.56 431.312C1204.94 431.312 1172.71 403.189 1172.71 360.286C1172.71 317.383 1204.94 289.465 1244.56 289.465C1265.08 289.465 1280.07 296.855 1291.15 307.94C1293.21 309.993 1294.44 312.867 1294.44 315.946C1294.44 322.104 1289.51 327.031 1283.35 327.031C1280.27 327.031 1277.4 325.799 1275.35 323.747C1267.55 315.946 1256.87 310.814 1244.56 310.814C1217.46 310.814 1197.34 331.547 1197.34 360.286C1197.34 389.025 1217.46 409.963 1244.56 409.963C1258.51 409.963 1270.83 403.395 1276.99 397.647V376.298H1245.58C1239.83 376.298 1234.91 371.576 1234.91 365.623C1234.91 359.67 1239.83 355.154 1245.58 355.154H1288.28C1296.49 355.154 1301.01 359.67 1301.01 367.881V367.881Z" fill="#000D3A"/>
<path d="M1343.86 407.089C1343.86 400.726 1348.5 395.594 1354.04 395.594C1356.43 395.594 1358.64 396.415 1360.31 397.852C1368.82 404.831 1379.33 409.758 1392.26 409.758C1410.01 409.758 1417.01 400.11 1417.01 391.078C1417.01 378.761 1403.9 375.066 1388.93 370.755C1368.79 365.212 1345.14 358.644 1345.14 329.699C1345.14 307.119 1363.07 289.67 1391.88 289.67C1406.29 289.67 1417.92 293.776 1429.92 302.192C1432.68 304.04 1434.55 307.529 1434.55 311.43C1434.55 317.588 1429.92 322.72 1424.38 322.72C1422.17 322.72 1420.14 321.899 1418.65 320.667C1409.78 314.098 1399.45 311.019 1390.03 311.019C1375.43 311.019 1367.31 317.793 1367.31 328.057C1367.31 338.321 1379.88 342.221 1394.48 346.327C1414.8 352.075 1439 359.054 1439 388.819C1439 411.605 1424.58 431.107 1391.33 431.107C1373.04 431.107 1358.83 425.359 1347.92 416.121C1345.53 414.069 1343.86 410.784 1343.86 407.089V407.089Z" fill="#000D3A"/>
</svg>
