<?xml version="1.0" standalone="no"?>
<!DOCTYPE svg PUBLIC "-//W3C//DTD SVG 20010904//EN"
 "http://www.w3.org/TR/2001/REC-SVG-20010904/DTD/svg10.dtd">
<svg version="1.0" xmlns="http://www.w3.org/2000/svg"
 width="800.000000pt" height="800.000000pt" viewBox="0 0 800.000000 800.000000"
 preserveAspectRatio="xMidYMid meet">
<metadata>
Created by potrace 1.11, written by Peter Selinger 2001-2013
</metadata>
<g transform="translate(0.000000,800.000000) scale(0.100000,-0.100000)"
fill="#000000" stroke="none">
<path d="M9 6796 c0 -1 -2 -18 -5 -39 -3 -28 0 -36 9 -31 9 5 9 4 0 -7 -17
-17 -17 -32 -1 -23 10 6 10 5 1 -7 -10 -12 -10 -18 0 -29 6 -7 7 -10 1 -7 -7
4 -11 -5 -12 -24 0 -20 3 -27 11 -22 9 5 9 3 1 -8 -15 -19 -15 -89 -1 -89 8 0
8 -3 2 -8 -15 -10 -16 -144 -1 -135 8 5 8 3 0 -8 -15 -19 -15 -89 -1 -89 8 0
8 -3 2 -8 -15 -10 -16 -144 -1 -135 8 5 8 3 0 -8 -15 -19 -15 -89 -1 -89 8 0
8 -3 2 -8 -15 -10 -16 -144 -1 -135 8 5 8 3 0 -8 -15 -19 -15 -89 -1 -89 8 0
8 -3 2 -8 -15 -10 -16 -144 -1 -135 8 5 8 3 0 -8 -15 -19 -15 -89 -1 -89 8 0
8 -3 2 -8 -15 -10 -16 -144 -1 -135 8 5 8 3 0 -8 -15 -19 -15 -89 -1 -89 8 0
8 -3 2 -8 -15 -10 -16 -144 -1 -135 8 5 8 3 0 -8 -15 -19 -15 -89 -1 -89 8 0
8 -3 2 -8 -15 -10 -16 -144 -1 -135 8 5 8 3 0 -8 -15 -19 -15 -89 -1 -89 8 0
8 -3 2 -8 -15 -10 -16 -144 -1 -135 8 5 8 3 0 -8 -15 -19 -15 -89 -1 -89 8 0
8 -3 2 -8 -15 -10 -16 -144 -1 -135 8 5 8 3 0 -8 -15 -19 -15 -89 -1 -89 8 0
8 -3 2 -8 -15 -10 -16 -144 -1 -135 8 5 8 3 0 -8 -15 -19 -15 -89 -1 -89 8 0
8 -3 2 -8 -15 -10 -16 -144 -1 -135 8 5 8 3 0 -8 -15 -19 -15 -89 -1 -89 8 0
8 -3 2 -8 -15 -10 -16 -144 -1 -135 8 5 8 3 0 -8 -15 -19 -15 -89 -1 -89 8 0
8 -3 2 -8 -15 -10 -16 -144 -1 -135 8 5 8 3 0 -8 -15 -19 -15 -89 -1 -89 8 0
8 -3 2 -8 -15 -10 -16 -144 -1 -135 8 5 8 3 0 -8 -15 -19 -15 -89 -1 -89 8 0
8 -3 2 -8 -15 -10 -16 -144 -1 -135 8 5 8 3 0 -8 -15 -19 -15 -89 -1 -89 8 0
8 -3 2 -8 -15 -10 -16 -144 -1 -135 8 5 8 3 0 -8 -15 -19 -15 -89 -1 -89 8 0
8 -3 2 -8 -15 -10 -16 -144 -1 -135 8 5 8 3 0 -8 -15 -19 -15 -89 -1 -89 8 0
8 -3 2 -8 -15 -10 -16 -144 -1 -135 8 5 8 3 0 -8 -15 -19 -15 -89 -1 -89 8 0
8 -3 2 -8 -15 -10 -16 -144 -1 -135 8 5 8 3 0 -8 -15 -19 -15 -89 -1 -89 8 0
8 -3 2 -8 -15 -10 -16 -144 -1 -135 8 5 8 3 0 -8 -15 -19 -15 -89 -1 -89 8 0
8 -3 2 -8 -15 -10 -16 -144 -1 -135 8 5 8 3 0 -8 -15 -19 -15 -89 -1 -89 8 0
8 -3 2 -8 -15 -10 -16 -144 -1 -135 8 5 8 3 0 -8 -13 -17 -16 -89 -3 -89 5 0
9 -6 9 -13 0 -11 57 -15 95 -7 6 1 12 2 15 1 17 -6 78 -7 75 -1 -3 5 11 4 30
0 20 -4 35 -4 35 1 0 5 5 9 11 9 5 0 8 -4 5 -9 -5 -8 34 -8 69 -1 6 1 12 2 15
1 17 -6 78 -7 75 -1 -3 5 11 4 30 0 20 -4 35 -4 35 1 0 5 5 9 11 9 5 0 8 -4 5
-9 -5 -8 34 -8 69 -1 6 1 12 1 15 0 15 -6 60 -4 60 2 0 4 5 8 11 8 5 0 8 -4 5
-9 -5 -8 34 -8 69 -1 6 1 12 2 15 1 17 -6 78 -7 75 -1 -3 5 11 4 30 0 20 -4
35 -4 35 1 0 5 5 9 11 9 5 0 8 -4 5 -9 -5 -8 34 -8 69 -1 6 1 12 2 15 1 17 -6
78 -7 75 -1 -3 5 11 4 30 0 20 -4 35 -4 35 1 0 5 5 9 11 9 5 0 8 -4 5 -9 -5
-8 34 -8 69 -1 6 1 12 2 15 0 19 -7 59 -7 55 0 -3 5 8 5 25 0 18 -5 32 -5 36
1 3 5 11 6 17 2 19 -11 80 -10 96 1 11 8 13 8 8 0 -8 -14 290 -14 312 0 9 6
12 5 8 -1 -8 -12 532 -12 552 1 9 6 12 5 8 -1 -8 -13 211 -12 232 1 9 6 12 5
8 -1 -8 -13 211 -12 232 1 9 6 12 5 8 -2 -5 -7 40 -10 148 -9 85 1 155 4 155
7 0 3 26 5 58 4 31 0 63 4 70 9 8 6 12 5 12 -2 0 -9 5 -9 21 0 15 7 19 8 15 0
-5 -7 -1 -9 8 -5 9 3 16 11 16 18 0 7 4 6 9 -3 5 -8 11 -9 15 -3 3 6 18 9 31
6 14 -2 25 -1 25 4 0 5 7 9 15 9 8 0 15 -5 15 -11 0 -7 3 -7 8 0 9 15 53 21
70 10 8 -5 11 -3 10 5 -2 9 11 13 37 14 22 1 50 7 61 13 12 6 24 8 28 4 4 -3
11 0 16 8 9 13 10 13 10 0 0 -11 2 -12 8 -3 5 7 20 14 35 15 15 1 27 6 27 10
0 4 9 5 20 3 11 -2 20 1 20 6 0 6 6 9 13 6 6 -2 21 3 31 12 18 15 19 15 13 -4
-7 -19 -7 -19 7 -1 8 10 22 16 30 13 8 -3 16 -2 18 4 2 5 14 11 27 14 14 2 28
10 32 16 5 8 8 7 11 -2 4 -12 7 -12 21 0 11 9 17 10 17 2 0 -6 9 -11 20 -11
11 0 20 -4 20 -10 0 -5 15 -10 34 -10 19 0 38 -5 42 -12 5 -7 3 -8 -6 -3 -9 5
-11 4 -6 -4 6 -8 12 -9 20 -2 9 7 16 7 24 -1 7 -7 12 -8 12 -4 0 5 8 2 17 -5
14 -12 16 -12 9 1 -4 8 0 6 8 -4 12 -15 16 -16 17 -5 0 8 4 6 9 -6 5 -11 9
-14 9 -6 1 10 4 11 14 2 8 -6 17 -8 20 -4 4 3 13 0 22 -7 12 -10 15 -10 15 0
0 9 7 7 20 -5 15 -14 20 -15 21 -4 0 8 4 6 9 -6 6 -13 9 -15 9 -5 1 13 2 13
11 0 8 -12 10 -12 10 -1 0 11 3 11 15 1 8 -6 19 -9 25 -5 5 3 10 2 10 -2 0 -5
15 -9 33 -8 17 0 38 -7 45 -15 8 -8 11 -9 7 -3 -4 9 2 12 19 11 13 -1 22 -6
19 -11 -3 -5 10 -7 30 -4 19 2 41 1 48 -4 7 -4 19 -3 25 2 9 7 16 5 23 -8 6
-10 11 -12 11 -6 0 9 7 10 23 4 14 -6 30 -5 41 1 12 7 17 7 13 0 -4 -5 7 -10
26 -11 17 0 62 -2 100 -3 37 -2 67 0 67 5 0 4 5 7 11 7 5 0 8 -4 5 -9 -5 -8
34 -8 69 -1 6 1 12 1 15 0 15 -6 60 -4 60 2 0 4 5 8 11 8 5 0 8 -4 5 -9 -5 -8
34 -8 69 -1 6 1 12 2 15 1 17 -6 78 -7 75 -1 -3 5 11 4 30 0 20 -4 35 -4 35 1
0 5 5 9 11 9 5 0 8 -4 5 -9 -5 -8 34 -8 69 -1 6 1 12 2 15 1 17 -6 78 -7 75
-1 -3 5 11 4 30 0 20 -4 35 -4 35 1 0 5 5 9 11 9 5 0 8 -4 5 -9 -5 -8 34 -8
69 -1 6 1 12 1 15 0 15 -6 60 -4 60 2 0 4 5 8 11 8 5 0 8 -4 5 -9 -5 -8 34 -8
69 -1 6 1 12 2 15 1 17 -6 78 -7 75 -1 -3 5 11 4 30 0 20 -4 35 -4 35 1 0 5 5
9 11 9 5 0 8 -4 5 -9 -5 -8 34 -8 69 -1 6 1 12 2 15 1 17 -6 78 -7 75 -1 -3 5
11 4 30 0 20 -4 35 -4 35 1 0 5 5 9 11 9 5 0 8 -4 5 -9 -5 -8 34 -8 69 -1 6 1
12 2 15 0 19 -7 59 -7 55 0 -3 5 8 5 25 0 18 -5 32 -5 36 1 3 5 11 6 17 2 18
-11 47 -11 47 0 0 5 5 5 13 -1 8 -7 18 -7 27 -2 8 5 18 6 23 3 15 -9 77 -11
71 -2 -2 4 10 4 28 -2 40 -11 41 -11 33 0 -3 6 6 6 25 1 18 -5 32 -5 36 1 3 5
11 6 17 2 18 -11 47 -11 47 0 0 5 5 5 13 -1 8 -7 18 -7 27 -2 8 5 18 6 23 3
13 -8 77 -11 73 -4 -5 8 62 6 70 -2 3 -3 17 -2 31 4 16 6 22 6 18 -1 -8 -13 8
-13 22 1 7 7 13 7 17 1 4 -7 17 -7 36 -2 17 5 32 5 35 0 3 -5 16 -5 31 0 17 7
23 7 19 0 -3 -6 -2 -10 4 -10 5 0 13 5 16 10 4 6 11 7 17 4 16 -10 68 -11 68
-1 0 4 5 7 11 7 5 0 8 -4 5 -9 -5 -8 34 -8 69 -1 6 1 12 2 15 1 17 -6 78 -7
75 -1 -3 5 11 4 30 0 20 -4 35 -4 35 1 0 5 5 9 11 9 5 0 8 -4 5 -9 -5 -8 34
-8 69 -1 6 1 12 2 15 1 17 -6 78 -7 75 -1 -3 5 11 4 30 0 20 -4 35 -4 35 1 0
5 5 9 11 9 5 0 8 -4 5 -9 -7 -10 57 -6 75 5 8 5 9 3 4 -5 -6 -10 -3 -11 14 -2
17 10 19 15 11 31 -7 14 -7 20 0 20 5 0 10 5 10 11 0 5 -4 8 -9 5 -8 -5 -8 22
-1 32 7 7 5 29 -2 45 -5 10 -5 17 2 17 5 0 10 5 10 11 0 5 -4 7 -10 4 -6 -4
-7 2 -1 18 6 16 6 28 -2 36 -8 8 -8 11 1 11 10 0 10 5 2 20 -7 14 -7 20 0 20
5 0 10 5 10 11 0 5 -5 7 -12 3 -7 -4 -8 -3 -4 4 12 20 15 113 3 105 -6 -3 -7
-1 -3 5 10 17 14 82 4 76 -4 -3 -8 0 -8 5 0 6 5 11 10 11 7 0 7 6 0 20 -8 15
-8 20 2 20 9 0 9 3 -2 10 -11 7 -11 10 -2 10 10 0 10 5 2 20 -7 14 -7 20 0 20
5 0 10 5 10 11 0 5 -5 7 -12 3 -7 -4 -8 -3 -4 4 12 20 15 113 3 105 -6 -3 -7
-1 -3 5 10 17 14 82 4 76 -4 -3 -8 0 -8 5 0 6 5 11 10 11 7 0 7 6 0 20 -8 15
-8 20 2 20 9 0 9 3 -2 10 -11 7 -11 10 -2 10 10 0 10 5 2 20 -7 14 -7 20 0 20
5 0 10 5 10 11 0 5 -5 7 -12 3 -7 -4 -8 -3 -4 4 12 20 15 113 3 105 -6 -3 -7
-1 -3 5 10 17 14 82 4 76 -4 -3 -8 0 -8 5 0 6 5 11 10 11 7 0 7 6 0 20 -8 15
-8 20 2 20 9 0 9 3 -2 10 -11 7 -11 10 -2 10 10 0 10 5 2 20 -7 14 -7 20 0 20
5 0 10 5 10 11 0 5 -5 7 -12 3 -7 -4 -8 -3 -4 4 12 20 15 113 3 105 -6 -3 -7
-1 -3 5 10 17 14 82 4 76 -4 -3 -8 0 -8 5 0 6 5 11 10 11 7 0 7 6 0 20 -8 15
-8 20 2 20 9 0 9 3 -2 10 -11 7 -11 10 -2 10 10 0 10 5 2 20 -7 14 -7 20 0 20
5 0 10 5 10 11 0 5 -4 7 -10 4 -6 -4 -7 2 -2 17 9 27 8 368 -1 392 -4 9 -2 16
3 16 6 0 10 5 10 11 0 5 -4 7 -10 4 -6 -4 -7 2 -1 18 6 16 6 28 -2 36 -8 8 -8
11 1 11 10 0 10 5 2 20 -7 14 -7 20 0 20 5 0 10 5 10 11 0 5 -4 7 -10 4 -6 -3
-7 1 -4 10 10 26 11 88 2 108 -5 10 -5 17 2 17 5 0 10 5 10 11 0 5 -6 7 -12 3
-8 -5 -7 0 2 11 9 11 10 16 3 11 -7 -4 -13 -2 -13 3 0 6 5 11 10 11 7 0 7 6 0
20 -7 14 -7 20 0 20 5 0 10 5 10 11 0 5 -4 7 -10 4 -6 -3 -7 1 -4 10 10 26 11
88 2 108 -5 10 -5 17 2 17 5 0 10 5 10 11 0 5 -6 7 -12 3 -8 -5 -7 0 2 11 9
11 10 16 3 11 -7 -4 -13 -2 -13 3 0 6 5 11 10 11 7 0 7 6 0 20 -7 14 -7 20 0
20 5 0 10 5 10 11 0 5 -4 8 -9 4 -6 -3 -7 6 -4 22 8 43 9 275 1 301 -4 13 -3
22 2 22 6 0 10 5 10 11 0 5 -4 7 -10 4 -6 -4 -7 2 -1 18 6 16 6 28 -2 36 -8 8
-8 11 1 11 10 0 10 5 2 20 -7 14 -7 20 0 20 5 0 10 5 10 11 0 5 -4 7 -10 4 -6
-3 -7 1 -4 10 10 26 11 88 2 108 -5 10 -5 17 2 17 5 0 10 5 10 11 0 5 -6 7
-13 3 -7 -5 -6 0 3 11 9 11 10 16 3 11 -7 -4 -13 -2 -13 3 0 6 5 11 10 11 7 0
7 6 0 20 -7 14 -7 20 0 20 5 0 10 5 10 11 0 5 -4 7 -10 4 -6 -3 -7 1 -4 10 10
26 11 88 2 108 -5 10 -5 17 2 17 5 0 10 5 10 11 0 5 -6 7 -12 3 -8 -5 -7 0 2
11 9 11 10 16 3 11 -7 -4 -13 -2 -13 3 0 6 5 11 10 11 7 0 7 6 0 20 -7 14 -7
20 0 20 5 0 10 5 10 11 0 5 -4 8 -9 4 -6 -3 -7 6 -4 22 8 43 9 282 1 276 -5
-2 -4 6 1 19 5 15 5 31 0 41 -7 11 -6 17 1 17 5 0 10 5 10 11 0 5 -6 7 -13 3
-7 -5 -6 0 3 11 9 11 10 16 3 11 -7 -4 -13 -2 -13 3 0 6 5 11 10 11 7 0 7 6 0
20 -7 14 -7 20 0 20 5 0 10 5 10 11 0 5 -4 7 -10 4 -6 -3 -7 1 -4 10 10 26 11
88 2 108 -5 10 -5 17 2 17 5 0 10 5 10 11 0 5 -6 7 -12 3 -8 -5 -7 0 2 11 9
11 10 16 3 11 -7 -4 -13 -2 -13 3 0 6 5 11 10 11 7 0 7 6 0 20 -7 14 -7 20 0
20 5 0 10 5 10 11 0 5 -4 7 -10 4 -6 -3 -7 1 -4 10 10 26 11 88 2 108 -5 10
-5 17 2 17 5 0 10 5 10 11 0 5 -6 7 -12 3 -8 -5 -7 0 2 11 9 11 10 16 3 11 -7
-4 -13 -2 -13 3 0 6 5 11 10 11 7 0 7 6 0 20 -7 14 -7 20 0 20 5 0 10 5 10 11
0 5 -4 8 -9 4 -6 -3 -7 6 -4 22 8 43 9 275 1 301 -4 13 -3 22 2 22 6 0 10 5
10 11 0 5 -4 7 -10 4 -6 -4 -7 2 -1 18 6 16 6 28 -2 36 -8 8 -8 11 1 11 10 0
10 5 2 20 -7 14 -7 20 0 20 5 0 10 5 10 11 0 5 -4 7 -10 4 -6 -3 -7 1 -4 10
10 26 11 88 2 108 -5 10 -5 17 2 17 5 0 10 5 10 11 0 5 -6 7 -13 3 -7 -5 -6 0
3 11 9 11 10 16 3 11 -7 -4 -13 -2 -13 3 0 6 5 11 10 11 7 0 7 6 0 20 -7 14
-7 20 0 20 5 0 10 5 10 11 0 5 -4 7 -10 4 -6 -3 -7 1 -4 10 10 26 11 88 2 108
-5 10 -5 17 2 17 5 0 10 5 10 11 0 5 -6 7 -12 3 -8 -5 -7 0 2 11 9 11 10 16 3
11 -7 -4 -13 -2 -13 3 0 6 5 11 10 11 7 0 7 6 0 20 -7 14 -7 20 0 20 5 0 10 5
10 11 0 5 -6 7 -12 3 -9 -5 -9 -2 1 9 11 14 11 17 0 17 -11 0 -11 2 1 10 13 9
13 10 0 10 -9 0 -11 3 -5 8 13 9 18 35 5 27 -5 -3 -10 -2 -10 3 0 5 -676 9
-1590 9 -1205 1 -1589 -2 -1584 -10 5 -8 2 -7 -7 1 -14 13 -33 17 -26 5 3 -5
-18 -8 -46 -7 -29 0 -62 -3 -74 -7 -14 -5 -23 -4 -26 4 -3 9 -8 9 -20 -1 -8
-7 -34 -14 -56 -15 -23 -1 -41 -5 -41 -8 0 -4 -6 -7 -12 -6 -44 1 -88 -4 -85
-10 3 -5 -16 -9 -41 -11 -25 -1 -49 -6 -52 -10 -3 -4 -15 -7 -27 -6 -13 1 -23
-2 -23 -5 0 -6 -17 -10 -57 -13 -7 -1 -13 -4 -13 -8 0 -3 -8 -7 -17 -8 -50 -5
-67 -10 -71 -20 -2 -7 -8 -12 -13 -12 -6 0 -7 6 -3 13 6 9 5 9 -8 0 -8 -7 -18
-10 -21 -6 -4 3 -7 1 -7 -5 0 -6 -6 -9 -14 -6 -8 3 -17 1 -21 -5 -8 -14 -75
-14 -75 0 0 6 -7 9 -15 6 -8 -4 -17 -2 -20 4 -4 5 -11 7 -16 4 -5 -4 -9 -2 -9
2 0 8 -15 12 -57 15 -7 1 -13 4 -13 8 0 4 -6 7 -12 7 -7 0 -22 4 -32 9 -15 6
-18 4 -12 -7 5 -9 3 -8 -6 2 -7 9 -19 14 -27 11 -8 -3 -11 0 -7 7 4 7 2 9 -8
5 -8 -3 -24 -1 -35 6 -16 8 -21 8 -21 -2 0 -10 -2 -10 -8 -1 -5 7 -20 14 -35
15 -15 1 -27 7 -27 13 0 5 -5 3 -10 -5 -6 -10 -10 -11 -10 -3 0 7 -3 12 -7 12
-26 -4 -73 2 -69 9 3 5 -1 9 -9 9 -8 0 -12 -3 -10 -7 2 -4 -2 -7 -10 -7 -8 0
-12 4 -9 9 3 4 -9 6 -26 4 -17 -2 -32 0 -35 4 -3 4 -18 6 -35 5 -16 -1 -30 0
-30 4 0 4 -9 7 -20 8 -13 1 -18 -2 -13 -10 4 -7 -1 -6 -10 2 -10 8 -20 11 -24
8 -3 -4 -12 -2 -20 4 -10 9 -13 8 -13 0 0 -7 -5 -9 -12 -4 -10 6 -3204 15
-3209 9z m1478 -1362 c7 -1 16 2 19 8 4 6 10 5 15 -3 7 -11 9 -11 9 -1 0 8 5
10 13 5 19 -12 36 -12 43 -1 4 6 10 5 15 -3 7 -11 9 -11 9 -1 0 8 5 10 13 5
19 -12 36 -12 43 -1 4 6 10 5 15 -3 7 -11 9 -11 9 -1 0 8 5 10 13 5 19 -12 36
-12 43 -1 4 6 10 5 15 -3 7 -11 9 -11 9 -1 0 8 5 10 13 5 19 -12 36 -12 43 -1
4 6 10 5 15 -3 7 -11 9 -11 9 -1 0 8 5 10 13 5 19 -12 36 -12 43 -1 4 6 10 5
15 -3 7 -11 9 -11 9 -1 0 8 5 10 13 5 19 -12 36 -12 43 -1 4 6 10 5 15 -3 7
-11 9 -11 9 -1 0 8 5 10 13 5 19 -12 36 -12 43 -1 4 6 10 5 15 -3 7 -11 9 -11
9 -1 0 8 5 10 13 5 19 -12 36 -12 43 -1 4 6 10 5 15 -3 7 -11 9 -11 9 -1 0 8
5 10 13 5 19 -12 36 -12 43 -1 4 6 10 5 15 -3 7 -11 9 -11 9 -1 0 8 5 10 13 5
19 -12 36 -12 43 -1 4 6 10 5 15 -3 7 -11 9 -11 9 -1 0 8 5 10 13 5 19 -12 36
-12 43 -1 4 6 10 5 15 -3 7 -12 9 -12 9 0 0 11 3 11 17 0 16 -14 19 -14 38 0
9 6 21 7 40 2 7 -1 -46 -83 -60 -93 -6 -5 -4 -8 5 -8 12 -1 11 -3 -3 -11 -9
-6 -15 -14 -12 -19 3 -4 -2 -10 -10 -14 -8 -3 -15 -15 -15 -26 0 -11 -4 -20
-9 -20 -5 0 -12 -11 -15 -25 -4 -14 -11 -25 -16 -25 -5 0 -7 -6 -4 -14 3 -7
-2 -21 -11 -29 -8 -9 -14 -22 -13 -29 2 -7 -2 -12 -9 -11 -7 2 -10 -3 -7 -11
3 -8 0 -17 -5 -21 -6 -3 -9 -11 -6 -16 4 -5 2 -9 -4 -9 -6 0 -8 -7 -5 -15 4
-8 1 -15 -5 -15 -6 0 -11 -9 -11 -21 0 -11 -4 -18 -9 -14 -6 3 -8 -6 -5 -21 3
-16 1 -23 -6 -19 -9 5 -15 -22 -11 -47 0 -5 -4 -8 -9 -8 -5 0 -9 -3 -8 -7 1
-5 -4 -20 -10 -35 -6 -15 -9 -37 -7 -48 3 -17 1 -19 -9 -11 -11 9 -13 5 -12
-21 2 -18 -1 -37 -5 -43 -4 -5 -9 -19 -11 -30 -1 -11 -6 -22 -9 -25 -4 -3 -8
-21 -10 -40 -2 -19 -7 -40 -12 -47 -5 -7 -6 -17 -2 -23 3 -5 2 -10 -4 -10 -6
0 -8 -7 -5 -15 4 -8 2 -21 -3 -28 -4 -6 -8 -24 -7 -39 0 -16 -4 -28 -10 -28
-6 0 -4 -5 4 -10 12 -8 12 -10 1 -10 -8 0 -11 -3 -8 -6 3 -4 2 -15 -4 -25 -7
-13 -6 -19 1 -19 7 0 7 -8 -2 -22 -6 -13 -11 -33 -9 -46 1 -13 -3 -30 -11 -39
-8 -11 -8 -14 -1 -10 8 5 11 -1 9 -18 -1 -14 -6 -28 -9 -32 -12 -11 -7 -24 6
-17 9 6 9 4 1 -7 -6 -8 -11 -33 -10 -56 1 -24 -3 -43 -9 -43 -5 0 -3 -5 5 -10
8 -5 10 -10 5 -10 -12 0 -13 -40 -1 -58 4 -7 2 -12 -5 -12 -8 0 -8 -4 1 -15 9
-11 9 -15 1 -15 -9 0 -9 -5 -1 -20 8 -15 8 -20 -1 -20 -8 0 -7 -5 2 -17 12
-15 12 -16 -1 -8 -13 8 -13 7 -1 -8 9 -12 10 -17 2 -17 -8 0 -9 -5 -3 -16 5
-9 7 -26 5 -38 -4 -17 -3 -18 6 -6 7 9 11 10 11 3 0 -6 -5 -15 -11 -19 -7 -4
-8 -9 0 -17 7 -7 7 -16 0 -29 -7 -12 -6 -18 1 -18 7 0 10 -6 7 -12 -2 -7 0
-21 5 -32 7 -13 7 -16 -1 -12 -7 5 -9 1 -5 -8 3 -9 11 -16 18 -16 6 0 5 -4 -3
-9 -10 -7 -12 -14 -5 -23 6 -7 9 -28 9 -45 -1 -18 3 -33 7 -33 5 0 7 -4 4 -9
-4 -5 -2 -21 4 -36 5 -14 6 -24 2 -21 -5 3 -9 -1 -9 -9 0 -8 4 -12 9 -9 8 5
11 -5 11 -38 0 -10 4 -18 8 -18 11 0 7 -23 -6 -32 -6 -5 -3 -8 7 -8 12 0 15
-6 10 -22 -3 -11 -1 -19 4 -16 5 4 10 -10 10 -29 1 -19 6 -38 11 -42 6 -3 9
-16 8 -28 -1 -13 2 -23 7 -23 5 0 6 -4 3 -10 -3 -5 -2 -10 4 -10 5 0 8 -9 6
-20 -2 -11 1 -20 7 -20 6 0 9 -3 5 -6 -3 -4 1 -20 9 -36 9 -17 13 -32 10 -35
-3 -3 2 -12 10 -20 8 -8 11 -19 8 -25 -4 -6 -1 -14 5 -18 7 -4 13 -13 14 -21
2 -8 6 -20 11 -27 4 -7 5 -16 2 -19 -3 -3 1 -11 8 -17 8 -6 16 -20 18 -31 2
-11 5 -22 8 -25 12 -12 30 -51 30 -64 0 -7 7 -19 15 -26 8 -7 12 -16 9 -21 -3
-5 -1 -9 4 -9 11 0 38 -60 34 -73 -1 -5 2 -6 8 -2 9 6 14 -7 11 -27 0 -5 3 -8
9 -8 5 0 10 -5 10 -12 0 -6 10 -22 22 -35 l21 -23 -24 -1 c-32 -1 -959 -1
-1024 0 -34 1 -46 4 -38 12 6 6 7 25 3 50 -4 21 -4 39 1 39 4 0 4 14 -1 30 -5
17 -5 30 0 30 4 0 4 16 0 35 -5 24 -4 35 4 36 7 0 7 2 -2 6 -6 2 -9 10 -5 16
5 9 8 72 3 80 -5 8 -4 67 1 67 4 0 3 16 -1 35 -5 21 -4 35 2 35 5 0 6 5 3 11
-9 14 -12 79 -4 79 4 0 3 16 -1 35 -4 20 -4 38 1 41 5 3 6 10 3 16 -9 15 -11
68 -3 68 4 0 3 16 -1 35 -5 21 -4 35 2 35 5 0 6 5 3 11 -9 14 -12 79 -4 79 4
0 3 16 -1 35 -4 20 -4 38 1 41 5 3 6 10 3 16 -9 15 -11 68 -3 68 4 0 3 16 -1
35 -5 21 -4 35 2 35 5 0 6 5 3 11 -9 14 -12 79 -4 79 4 0 3 16 -1 35 -4 20 -4
38 1 41 5 3 6 10 3 16 -9 15 -11 68 -3 68 4 0 3 16 -1 35 -5 21 -4 35 2 35 5
0 6 5 3 11 -10 15 -12 79 -3 79 4 0 5 6 2 13 -9 25 -9 117 1 118 5 0 4 3 -4 6
-11 5 -11 7 0 14 12 7 11 9 -1 9 -13 0 -13 1 0 10 8 5 10 10 4 10 -7 0 -9 15
-4 45 5 30 3 45 -4 46 -7 0 -7 2 0 5 8 3 9 16 4 39 -5 24 -4 35 4 35 7 0 6 4
-3 9 -10 6 -10 10 -1 16 9 6 9 10 -1 16 -9 5 -10 9 -3 9 8 0 9 11 4 35 -5 24
-4 35 4 35 7 0 6 4 -3 9 -7 5 -9 11 -4 14 5 3 6 31 3 61 -4 36 -2 56 4 56 6 0
4 5 -4 10 -13 9 -13 10 0 10 13 0 13 1 0 10 -13 9 -13 10 0 10 9 0 11 3 5 8
-5 4 -10 24 -10 45 0 20 5 37 10 37 6 0 3 5 -5 10 -8 5 -10 10 -4 10 8 0 9 11
4 35 -5 24 -4 35 4 35 7 0 6 4 -3 9 -10 6 -10 10 -1 16 9 6 9 10 -1 16 -9 5
-10 9 -3 9 8 0 9 11 4 35 -5 24 -4 35 4 35 7 0 6 4 -3 9 -7 5 -9 11 -4 14 5 3
6 31 3 61 -4 36 -2 56 4 56 6 0 4 5 -4 10 -13 9 -13 10 0 10 13 0 13 1 0 10
-13 9 -13 10 0 10 9 0 11 3 5 8 -5 4 -10 24 -10 45 0 20 5 37 10 37 6 0 3 5
-5 10 -8 5 -10 10 -4 10 8 0 9 11 4 35 -5 24 -4 35 4 36 8 0 8 2 -1 5 -8 4 -7
11 5 23 9 10 22 15 27 12 6 -3 16 -6 22 -7z m4053 6 c8 5 19 6 25 2 16 -11 65
-9 65 2 0 7 3 8 8 1 11 -16 34 -17 43 -3 5 7 9 8 9 3 0 -14 38 -17 45 -4 4 5
12 6 18 2 21 -13 49 -14 41 -1 -5 7 -3 8 7 2 21 -13 69 -13 69 0 0 7 3 7 8 1
11 -16 34 -17 43 -3 5 7 9 8 9 3 0 -14 38 -17 45 -4 4 5 12 6 18 2 21 -13 49
-14 41 -1 -5 7 -3 8 7 2 21 -13 69 -13 69 0 0 7 3 7 8 1 11 -16 34 -17 43 -3
5 7 9 8 9 3 0 -14 38 -17 45 -4 4 5 12 6 18 2 21 -13 49 -14 41 -1 -5 7 -3 8
7 2 21 -13 69 -13 69 0 0 7 3 7 8 1 11 -16 34 -17 43 -3 5 7 9 8 9 3 0 -14 38
-17 45 -4 4 5 12 6 18 2 22 -14 49 -14 41 -1 -5 8 0 7 11 -2 10 -8 20 -14 22
-12 1 1 11 2 21 2 14 0 15 -2 2 -10 -8 -5 -10 -10 -5 -10 6 0 8 -32 5 -85 -3
-53 -1 -85 5 -86 6 0 5 -3 -1 -5 -8 -3 -9 -16 -4 -39 4 -19 4 -35 -1 -35 -5 0
-4 -11 1 -25 5 -14 6 -25 1 -25 -5 0 -5 -16 -1 -35 4 -19 4 -35 0 -35 -5 0 -5
-13 0 -28 4 -16 4 -36 -2 -45 -6 -12 -5 -17 4 -17 9 0 9 -3 -2 -10 -8 -5 -10
-10 -5 -10 6 0 8 -28 5 -75 -3 -42 -2 -87 2 -100 4 -16 2 -25 -5 -25 -7 0 -6
-4 3 -10 8 -5 10 -10 4 -10 -8 0 -9 -11 -4 -35 7 -29 5 -35 -9 -35 -9 0 -12
-3 -6 -8 16 -11 41 -47 29 -39 -7 4 -14 -2 -17 -13 -3 -11 0 -20 6 -21 9 0 9
-2 1 -5 -8 -3 -9 -16 -4 -39 5 -24 4 -35 -4 -36 -6 0 -5 -3 3 -6 11 -5 11 -7
0 -14 -8 -5 -9 -9 -4 -9 6 0 8 -32 5 -85 -3 -53 -1 -85 5 -86 6 0 5 -3 -1 -5
-8 -3 -9 -16 -4 -39 4 -19 4 -35 -1 -35 -5 0 -4 -11 1 -25 5 -14 6 -25 1 -25
-5 0 -5 -16 -1 -35 4 -19 4 -35 0 -35 -5 0 -5 -13 0 -28 4 -16 4 -36 -2 -45
-6 -12 -5 -17 4 -17 9 0 9 -3 -2 -10 -8 -5 -10 -10 -5 -10 6 0 8 -28 5 -75 -3
-42 -2 -87 2 -100 4 -16 2 -25 -5 -25 -7 0 -6 -4 3 -10 8 -5 10 -10 4 -10 -8
0 -9 -11 -4 -35 7 -29 5 -35 -9 -35 -9 0 -12 -3 -6 -8 16 -11 41 -47 29 -39
-7 4 -14 -2 -17 -13 -3 -11 0 -20 6 -21 9 0 9 -2 1 -5 -8 -3 -9 -16 -4 -39 5
-24 4 -35 -4 -36 -6 0 -5 -3 3 -6 11 -5 11 -7 0 -14 -8 -5 -9 -9 -4 -9 6 0 8
-32 5 -85 -3 -53 -1 -85 5 -86 6 0 5 -3 -1 -5 -8 -3 -9 -16 -4 -39 4 -19 4
-35 -1 -35 -5 0 -4 -11 1 -25 5 -14 6 -25 1 -25 -5 0 -5 -16 -1 -35 4 -19 4
-35 0 -35 -5 0 -5 -13 0 -28 4 -16 4 -36 -2 -45 -6 -12 -5 -17 4 -17 9 0 9 -3
-2 -10 -8 -5 -10 -10 -5 -10 6 0 8 -28 5 -75 -3 -42 -2 -87 2 -100 4 -16 2
-25 -5 -25 -7 0 -6 -4 3 -10 8 -5 10 -10 4 -10 -8 0 -9 -11 -4 -35 5 -22 4
-35 -2 -35 -6 0 -3 -12 7 -26 9 -15 13 -24 7 -20 -5 3 -12 -3 -15 -14 -3 -11
0 -20 6 -21 9 0 9 -2 0 -5 -8 -4 -9 -14 -3 -35 5 -18 5 -27 -1 -24 -5 4 -9 2
-9 -3 0 -4 -16 -7 -35 -6 -22 2 -35 -1 -35 -9 0 -8 -3 -9 -8 -1 -10 14 -133
15 -151 0 -11 -8 -13 -8 -8 1 10 15 -52 15 -72 -1 -11 -8 -13 -8 -8 1 10 15
-52 15 -72 -1 -11 -8 -13 -8 -8 1 9 15 -52 15 -72 0 -10 -9 -17 -7 -27 8 -8
10 -14 14 -14 9 0 -6 -22 -9 -50 -8 -33 2 -50 -1 -50 -9 0 -9 -2 -9 -8 -1 -4
7 -18 11 -32 10 -14 -1 -28 3 -32 9 -5 6 -8 6 -8 -2 0 -7 -7 -10 -15 -7 -9 4
-15 0 -15 -7 0 -10 -3 -10 -8 -3 -9 14 -114 14 -124 0 -5 -7 -8 -7 -8 1 0 8
-11 11 -30 9 -17 -2 -30 1 -31 8 0 7 -2 7 -5 -1 -3 -7 -12 -9 -20 -6 -8 3 -14
-1 -14 -8 0 -10 -2 -11 -8 -2 -4 7 -21 12 -37 11 -52 -1 -62 2 -62 17 0 8 4
12 9 9 4 -3 8 2 8 10 0 9 5 16 10 16 6 0 10 5 10 11 0 6 10 25 22 42 13 18 16
28 7 23 -11 -6 -11 -5 1 6 18 16 60 97 60 116 0 8 5 10 12 6 8 -5 9 -2 5 9 -3
10 -2 17 3 17 6 0 10 9 10 20 0 11 5 20 11 20 5 0 7 4 4 10 -3 6 -1 10 5 10 6
0 9 4 5 9 -3 5 0 13 6 16 5 4 8 13 5 21 -3 8 1 17 9 20 8 4 15 17 15 30 0 13
5 24 11 24 6 0 9 9 6 20 -3 13 -1 18 6 13 6 -4 8 0 4 11 -4 10 -1 19 8 22 8 4
15 10 15 16 0 5 -6 6 -12 2 -10 -6 -10 -5 -1 8 7 8 10 18 6 21 -3 4 -1 7 6 7
7 0 9 5 6 10 -3 6 -1 10 6 10 7 0 9 3 6 7 -4 3 -2 12 4 20 9 10 8 13 -2 13
-11 0 -11 2 -1 9 7 4 14 18 15 29 1 12 5 22 10 22 5 0 7 11 5 25 -3 14 -2 25
2 25 4 0 11 7 14 16 4 10 2 13 -7 8 -9 -5 -9 -4 1 7 6 7 12 26 12 42 0 15 4
26 9 23 4 -3 7 10 6 29 -1 19 3 35 7 35 5 0 6 5 3 10 -3 6 0 10 7 10 8 0 9 3
3 8 -15 11 -9 48 16 96 7 12 7 16 0 12 -7 -4 -8 6 -5 31 3 21 6 44 7 51 0 6 5
12 11 12 6 0 4 5 -4 10 -12 8 -12 10 -1 10 11 0 11 3 0 17 -12 14 -12 15 0 9
10 -6 12 -4 7 10 -3 11 -1 26 4 34 6 9 5 19 -3 28 -9 11 -7 17 8 28 17 12 17
14 2 14 -18 0 -23 15 -8 24 5 4 8 26 6 51 -2 31 1 43 9 38 6 -3 2 4 -9 17 -11
13 -15 20 -8 17 6 -4 14 -3 18 3 3 5 2 10 -2 10 -5 0 -8 21 -7 48 0 26 -4 50
-10 54 -7 5 -5 8 4 8 12 0 12 2 1 9 -10 7 -11 13 -1 31 7 12 7 20 2 16 -6 -3
-10 8 -10 29 0 23 4 33 12 29 6 -3 4 1 -6 8 -11 10 -13 19 -7 30 6 11 5 19 -1
23 -6 4 -8 11 -5 16 4 5 2 9 -4 9 -10 0 -9 19 2 38 5 6 4 12 -1 12 -9 0 -12
16 -12 58 0 12 -5 22 -11 22 -8 0 -8 4 0 14 8 10 9 16 1 21 -5 3 -10 15 -10
26 0 10 -6 19 -12 19 -9 0 -9 3 -3 8 13 9 12 38 -1 35 -5 -1 -9 16 -8 38 1 21
-2 39 -6 39 -4 0 -7 6 -8 13 -2 28 -9 46 -22 63 -10 12 -11 15 -2 10 10 -6 11
-1 6 21 -4 15 -11 30 -16 31 -4 2 -8 17 -8 33 0 17 -4 28 -10 24 -6 -3 -7 1
-4 9 3 9 1 16 -4 16 -6 0 -9 9 -7 20 2 11 -1 20 -6 20 -6 0 -7 5 -4 10 3 6 2
10 -4 10 -5 0 -8 9 -6 20 2 13 -2 20 -11 20 -8 0 -13 4 -10 9 8 13 -4 42 -15
35 -5 -3 -9 -1 -9 5 0 5 5 11 11 13 8 3 6 10 -6 21 -9 10 -18 23 -19 30 -1 6
-12 31 -24 53 -11 23 -18 44 -15 48 4 3 1 6 -5 6 -7 0 -12 7 -12 15 0 8 -4 15
-10 15 -5 0 -10 7 -10 15 0 14 -18 53 -30 65 -3 3 -12 19 -20 35 -8 17 -21 34
-28 38 -7 5 -10 12 -7 17 3 5 1 11 -5 15 -6 4 -8 11 -4 16 4 7 10 7 18 0 7 -6
17 -6 26 -1z m-1507 -427 c4 -7 15 -13 22 -13 8 0 14 -6 13 -12 -2 -7 2 -12 9
-11 8 2 10 -4 6 -15 -3 -9 -3 -14 1 -10 11 9 86 -72 86 -93 0 -5 5 -7 10 -4 6
3 10 -1 10 -9 0 -9 5 -16 10 -16 6 0 10 -7 10 -15 0 -8 5 -15 11 -15 6 0 8 -7
5 -17 -4 -10 -4 -14 0 -10 9 9 35 -13 28 -24 -3 -5 0 -9 5 -9 6 0 11 -6 11
-14 0 -8 7 -17 16 -20 8 -3 13 -10 9 -15 -3 -6 2 -19 12 -31 10 -11 18 -24 19
-28 2 -22 29 -60 38 -55 6 4 5 -1 -3 -10 -9 -12 -10 -17 -2 -17 7 0 10 -4 6
-9 -3 -5 0 -15 7 -23 13 -14 20 -33 21 -55 0 -7 3 -13 7 -13 6 0 8 -8 12 -50
1 -11 6 -20 11 -20 5 0 7 -12 4 -26 -2 -14 1 -31 8 -37 6 -7 11 -25 11 -40 -1
-15 1 -27 5 -27 4 0 10 -7 13 -16 6 -15 4 -15 -10 -3 -16 13 -16 12 -4 -11 7
-13 15 -51 17 -85 2 -33 5 -66 8 -72 2 -7 -1 -13 -8 -13 -7 0 -4 -7 6 -14 13
-10 15 -15 5 -19 -11 -4 -11 -8 0 -27 8 -12 9 -19 4 -16 -14 9 -21 -16 -10
-36 6 -13 5 -18 -4 -18 -10 0 -10 -2 1 -9 7 -5 9 -11 4 -14 -5 -3 -9 -30 -8
-61 0 -30 -4 -52 -9 -49 -5 3 -7 -6 -4 -21 3 -14 2 -26 -3 -26 -4 0 -6 -10 -4
-22 3 -12 0 -27 -5 -33 -6 -7 -11 -24 -12 -39 -1 -14 -6 -26 -10 -26 -4 0 -5
-7 -2 -15 4 -8 1 -15 -6 -15 -6 0 -9 -4 -5 -9 3 -5 0 -13 -6 -17 -8 -4 -7 -9
2 -15 11 -6 10 -9 -4 -15 -9 -3 -17 -14 -17 -23 0 -9 -11 -37 -24 -64 -14 -26
-19 -45 -13 -41 7 3 3 -2 -7 -10 -11 -9 -17 -16 -13 -16 4 0 -4 -18 -18 -40
-14 -22 -22 -40 -19 -40 4 0 -3 -8 -14 -19 -12 -10 -19 -21 -15 -25 3 -3 0 -6
-7 -6 -7 0 -11 -3 -7 -6 5 -5 -10 -27 -41 -60 -7 -8 -11 -14 -8 -14 7 0 -28
-43 -67 -82 -15 -15 -24 -28 -20 -28 4 0 -3 -7 -15 -16 -12 -8 -20 -20 -17
-25 3 -5 -2 -6 -11 -2 -12 4 -15 3 -10 -5 4 -7 1 -12 -9 -12 -9 0 -14 -4 -11
-9 3 -4 -6 -13 -19 -19 -23 -11 -30 -7 -79 42 -30 30 -58 52 -62 48 -4 -4 -4
-2 0 5 3 6 -5 23 -19 37 -14 14 -25 30 -25 36 0 6 -4 8 -10 5 -5 -3 -10 1 -10
9 0 9 -4 16 -10 16 -5 0 -10 7 -10 15 0 7 -7 18 -16 23 -9 5 -17 13 -17 18 -1
5 -5 8 -10 6 -4 -1 -6 1 -5 5 1 5 -3 18 -10 29 -6 12 -8 24 -5 28 3 3 1 6 -5
6 -6 0 -23 23 -37 50 -14 28 -22 50 -19 50 4 0 -3 9 -16 20 -15 13 -18 20 -9
20 9 0 10 3 3 8 -12 8 -40 73 -36 85 1 4 -4 15 -12 23 -9 8 -13 21 -10 29 4 8
1 15 -6 15 -9 0 -9 4 1 17 10 11 10 14 2 9 -9 -5 -13 -1 -13 13 0 11 -4 23
-10 26 -5 3 -10 12 -10 18 0 7 4 6 10 -3 6 -9 10 -10 10 -3 0 7 -8 17 -17 22
-12 7 -14 10 -4 11 11 0 10 5 -2 24 -12 17 -13 26 -4 35 6 6 7 11 1 11 -5 0
-10 25 -11 56 -1 31 -6 61 -12 67 -7 7 -7 15 0 24 9 10 8 13 -2 13 -12 0 -12
2 0 9 9 6 10 10 2 16 -9 5 -9 10 0 21 9 11 9 14 -1 14 -10 0 -10 3 0 15 10 12
10 15 -1 15 -12 0 -12 2 0 9 9 6 10 11 3 15 -15 9 -3 37 12 30 6 -3 2 2 -8 10
-12 10 -15 16 -7 16 8 0 11 8 8 20 -3 11 -2 20 2 20 4 0 6 17 5 38 -1 20 3 43
8 49 6 7 8 24 6 38 -3 14 -1 25 4 25 5 0 6 5 3 10 -3 6 -1 10 6 10 7 0 9 3 6
6 -3 4 -2 15 4 25 7 14 6 19 -3 19 -9 0 -10 3 -2 8 10 6 21 38 30 81 1 8 6 17
11 20 5 3 8 16 7 28 -1 13 5 28 12 34 8 6 14 18 14 26 0 8 4 11 10 8 5 -3 7 0
4 8 -3 8 0 18 5 22 6 3 9 11 6 16 -4 5 -1 9 5 9 6 0 9 4 5 9 -3 5 -1 12 5 16
6 4 8 11 5 16 -4 5 2 6 11 2 13 -5 16 -3 11 9 -3 9 3 25 14 36 10 12 19 26 19
31 0 5 6 16 13 23 22 23 52 73 49 82 -2 5 4 6 13 3 9 -4 15 -1 15 8 0 8 5 15
12 15 6 0 9 3 5 6 -8 9 16 33 27 26 5 -3 6 0 3 5 -4 6 1 19 11 30 9 10 13 12
7 3 -9 -13 -8 -13 8 -1 9 7 17 20 17 28 0 8 5 11 10 8 6 -3 10 1 10 9 0 9 6
16 14 16 8 0 17 9 21 20 5 17 9 18 28 7 12 -7 26 -18 30 -24z"/>
</g>
</svg>
