<svg xmlns="http://www.w3.org/2000/svg" width="49.107" height="63.92" viewBox="0 0 49.107 63.92">
  <g id="noun_design_1045683" transform="translate(-12.3 -0.956)">
    <path id="Path_12" data-name="Path 12" d="M38.7,46.076a2.17,2.17,0,0,0,2.084-1.5l2.019-5.6V16.7a4.1,4.1,0,1,0-8.206,0V38.977l2.019,5.6A2.231,2.231,0,0,0,38.7,46.076ZM36.554,19.243h1.172V36.567l-1.172.586Zm4.3,0V37.219l-1.172-.586V19.243Zm-1.3,23.186a1.1,1.1,0,0,0-1.563,0L36.814,39.3l1.954-1.042L40.722,39.3ZM38.7,14.554A2.168,2.168,0,0,1,40.852,16.7v.586h-4.3V16.7A2.168,2.168,0,0,1,38.7,14.554Z" transform="translate(-7.776 -4.061)" fill="#fff"/>
    <path id="Path_13" data-name="Path 13" d="M52.448,15.248V19.09a1.769,1.769,0,0,0,.391,1.107c-.521,2.345-1.693,10.421,1.758,20.581a1.96,1.96,0,0,0,1.693,1.172h.065a1.825,1.825,0,0,0,1.758-1.107A36.265,36.265,0,0,0,59.873,20.2a1.479,1.479,0,0,0,.391-1.042V15.508a.826.826,0,0,0-.065-.391,5.709,5.709,0,0,0,1.954-6.383c-1.042-4.168-4.364-7.36-6.708-7.75a1.36,1.36,0,0,0-1.433.651,1.275,1.275,0,0,0,.13,1.563,2.03,2.03,0,0,1,.391,1.563,1.934,1.934,0,0,1-.847,1.3l-.065.13c-2.149,1.693-3.256,3.712-3.126,5.731A4.592,4.592,0,0,0,52.448,15.248Zm5.927.521v3H54.337v-3ZM56.356,40a38.938,38.938,0,0,1-1.628-19.213h3.322A36.147,36.147,0,0,1,56.356,40ZM54.793,7.758a3.657,3.657,0,0,0,1.693-2.605,4.57,4.57,0,0,0-.065-1.628,10.53,10.53,0,0,1,3.973,5.731,3.77,3.77,0,0,1-1.758,4.624H53.881a2.725,2.725,0,0,1-1.433-2.149C52.318,10.428,53.165,9,54.793,7.758Z" transform="translate(-13.315 0)" fill="#fff"/>
    <path id="Path_14" data-name="Path 14" d="M60.672,16.211a.826.826,0,0,0,.391-.065,2.827,2.827,0,0,0,1.693-1.758c.586-1.954-.912-4.364-1.107-4.624a.985.985,0,0,0-1.628,1.107c.391.586,1.107,2.149.847,3a.8.8,0,0,1-.586.521.982.982,0,0,0-.521,1.3A.968.968,0,0,0,60.672,16.211Z" transform="translate(-16.524 -2.918)" fill="#fff"/>
    <path id="Path_15" data-name="Path 15" d="M57.564,24.5H50.791a.977.977,0,1,0,0,1.954h6.773a1.89,1.89,0,0,1,1.889,1.889V29.58H50.726a.977.977,0,0,0,0,1.954h8.662V54H14.254V31.534h8.532a.977.977,0,0,0,0-1.954H14.254V28.343a1.89,1.89,0,0,1,1.889-1.889h6.708a.977.977,0,1,0,0-1.954H16.143A3.85,3.85,0,0,0,12.3,28.343V56.869a3.85,3.85,0,0,0,3.843,3.843H30.276v2.345a7.931,7.931,0,0,1-3.973,6.9,1.706,1.706,0,0,0-.782,1.889,1.74,1.74,0,0,0,1.628,1.237H46.623a1.662,1.662,0,0,0,1.628-1.237,1.706,1.706,0,0,0-.782-1.889,8,8,0,0,1-4.1-6.9v-2.41h14.2A3.85,3.85,0,0,0,61.407,56.8V28.343A3.85,3.85,0,0,0,57.564,24.5ZM45.516,71H28.322a10.182,10.182,0,0,0,3.973-8.076v-2.28h9.183v2.28A10.056,10.056,0,0,0,45.516,71ZM57.564,58.693H16.143A1.89,1.89,0,0,1,14.254,56.8v-.912h45.2V56.8A1.89,1.89,0,0,1,57.564,58.693Z" transform="translate(0 -8.21)" fill="#fff"/>
  </g>
</svg>
