<svg xmlns="http://www.w3.org/2000/svg" width="54.856" height="54.858" viewBox="0 0 54.856 54.858">
  <g id="Group" transform="translate(-8.83 -8.802)">
    <path id="Compound_Path" data-name="Compound Path" d="M62.75,11.051a2.81,2.81,0,0,0-.539-.786l-.14-.133h0a2.33,2.33,0,0,0-.446-.293C57.191,7.023,40.578,9.706,29.485,20.8c-.9.9-1.718,1.811-2.484,2.737l-.08.047L8.83,33.657,18.991,38.6c-.08.26-.153.513-.22.752l-5.114,5.114,2.976,2.976a9.621,9.621,0,0,0-1.085.932c-3.183,3.176-3.7,8.5-2.517,10.334a1.944,1.944,0,0,0,.273.373l.113.127.08.047a1.112,1.112,0,0,0,.153.107,5.054,5.054,0,0,0,2.783.666,11.153,11.153,0,0,0,1.9-.173,10.867,10.867,0,0,0,5.773-2.9,9.642,9.642,0,0,0,.932-1.085l2.976,2.976,5.114-5.114.752-.22L38.826,63.66l10.068-18.1v-.047c.926-.766,1.844-1.591,2.737-2.484C62.644,32.026,65.4,15.686,62.75,11.051ZM14.59,33.5l8.856-4.934a44.692,44.692,0,0,0-3.6,7.491ZM22.22,55.051A8.226,8.226,0,0,1,15.255,57.2a8.312,8.312,0,0,1,2.164-6.951,7.151,7.151,0,0,1,1.125-.892l4.561,4.561a7.158,7.158,0,0,1-.886,1.132Zm5.786,0L17.419,44.464l2.417-2.417L30.43,52.634Zm10.967,2.83-2.557-5.254a44.612,44.612,0,0,0,7.484-3.6ZM49.786,41.114A40.377,40.377,0,0,1,32.641,51.1L21.4,39.836A40.43,40.43,0,0,1,31.389,22.69C42.1,11.95,57.324,10.266,60.214,12.13l.093.053.04.08.04.08C62.011,15.12,60.72,30.181,49.786,41.114Z" fill="#fff"/>
    <path id="Compound_Path-2" data-name="Compound Path" d="M52.714,28.766a7.657,7.657,0,1,0,10.827,0,7.657,7.657,0,0,0-10.827,0Zm8.949,8.949a4.994,4.994,0,1,1,0-7.065A4.994,4.994,0,0,1,61.663,37.715Z" transform="translate(-13.914 -5.923)" fill="#fff"/>
  </g>
</svg>
