<svg height="62.341" viewBox="0 0 62 62.341" width="62" xmlns="http://www.w3.org/2000/svg" xmlns:xlink="http://www.w3.org/1999/xlink"><filter id="a" filterUnits="userSpaceOnUse" height="62.341" width="62" x="0" y="0"><feOffset dy="2"/><feGaussianBlur result="blur" stdDeviation="2"/><feFlood flood-opacity=".204"/><feComposite in2="blur" operator="in"/><feComposite in="SourceGraphic"/></filter><g filter="url(#a)" transform="translate(0 -.004)"><ellipse cx="25" cy="25.17" fill="#2f65e5" rx="25" ry="25.17" transform="translate(6 4)"/></g><path d="m5.883 26.823v-18.299h-5.656v18.3zm0-24.785a2.781 2.781 0 0 0 -2.9-2.884 2.79 2.79 0 0 0 -2.93 2.884 2.774 2.774 0 0 0 2.864 2.885h.034a2.791 2.791 0 0 0 2.932-2.885zm9.227 24.785v-10.423a4.241 4.241 0 0 1 .2-1.514 3.4 3.4 0 0 1 3.184-2.27c2.246 0 3.654 1.274 3.654 3.784v10.423h5.694v-10.7c0-5.734-3.061-8.4-7.144-8.4a6.18 6.18 0 0 0 -5.633 3.146l.041-2.447h-5.681c.082 1.752 0 18.409 0 18.409z" fill="#fcfcfc" fill-rule="evenodd" transform="translate(16.947 15.846)"/></svg>