<svg height="62.341" viewBox="0 0 62 62.341" width="62" xmlns="http://www.w3.org/2000/svg" xmlns:xlink="http://www.w3.org/1999/xlink"><filter id="a" filterUnits="userSpaceOnUse" height="62.341" width="62" x="0" y="0"><feOffset dy="2"/><feGaussianBlur result="blur" stdDeviation="2"/><feFlood flood-opacity=".204"/><feComposite in2="blur" operator="in"/><feComposite in="SourceGraphic"/></filter><g filter="url(#a)"><path d="m25 0a25.171 25.171 0 1 1 -25 25.17 25.086 25.086 0 0 1 25-25.17z" fill="#2f65e5" transform="translate(6 4)"/></g><path d="m22.994 16.521a14.106 14.106 0 0 1 -4.458-.715 2.027 2.027 0 0 0 -1.982.421l-2.811 2.136a15.588 15.588 0 0 1 -6.984-7.031l2.06-2.756a2.044 2.044 0 0 0 .5-2.061 14.4 14.4 0 0 1 -.719-4.495 2.015 2.015 0 0 0 -2-2.02h-4.594a2.015 2.015 0 0 0 -2.006 2.02 23.1 23.1 0 0 0 22.994 23.15 2.015 2.015 0 0 0 2.006-2.019v-4.61a2.015 2.015 0 0 0 -2.006-2.02z" fill="#fcfcfc" transform="translate(19 17.089)"/></svg>