<svg xmlns="http://www.w3.org/2000/svg" width="48.801" height="46.222" viewBox="0 0 48.801 46.222">
  <g id="noun_content_816001" transform="translate(-12.716 -16.565)">
    <path id="Path_3" data-name="Path 3" d="M55.772,16.565H18.461a5.751,5.751,0,0,0-5.745,5.745V57.042a5.751,5.751,0,0,0,5.745,5.745H55.772a5.751,5.751,0,0,0,5.745-5.745V22.31A5.751,5.751,0,0,0,55.772,16.565Zm3.281,40.477a3.285,3.285,0,0,1-3.281,3.28H18.461a3.285,3.285,0,0,1-3.281-3.28V30.909H59.053Zm0-28.6H15.18V22.31a3.285,3.285,0,0,1,3.281-3.28H55.772a3.285,3.285,0,0,1,3.281,3.28v6.134Z" transform="translate(0)" fill="#fcfcfc"/>
    <rect id="Rectangle_14" data-name="Rectangle 14" width="3.587" height="2.464" transform="translate(18.944 22.857)" fill="#fcfcfc"/>
    <rect id="Rectangle_15" data-name="Rectangle 15" width="3.587" height="2.464" transform="translate(24.747 22.857)" fill="#fcfcfc"/>
    <rect id="Rectangle_16" data-name="Rectangle 16" width="3.587" height="2.464" transform="translate(30.55 22.857)" fill="#fcfcfc"/>
    <path id="Path_4" data-name="Path 4" d="M28.836,83.293H39.189a1.232,1.232,0,0,0,1.232-1.232V68.233A1.232,1.232,0,0,0,39.189,67H28.836A1.232,1.232,0,0,0,27.6,68.233V82.061A1.232,1.232,0,0,0,28.836,83.293Zm1.232-13.828h7.888V80.829H30.068Z" transform="translate(-8.773 -29.721)" fill="#fcfcfc"/>
    <rect id="Rectangle_17" data-name="Rectangle 17" width="11.364" height="2.464" transform="translate(34.386 38.444)" fill="#fcfcfc"/>
    <rect id="Rectangle_18" data-name="Rectangle 18" width="19.579" height="2.464" transform="translate(34.386 44.195)" fill="#fcfcfc"/>
    <rect id="Rectangle_19" data-name="Rectangle 19" width="19.579" height="2.464" transform="translate(34.386 49.945)" fill="#fcfcfc"/>
  </g>
</svg>
