<svg xmlns="http://www.w3.org/2000/svg" width="53.725" height="41.787" viewBox="0 0 53.725 41.787">
  <path id="noun_training_1863703" d="M47.771,40.817H41.8a1.492,1.492,0,0,1,0-2.985h5.969a5.976,5.976,0,0,0,5.969-5.969V13.954a5.976,5.976,0,0,0-5.969-5.969H11.954a5.976,5.976,0,0,0-5.969,5.969V25.893a1.492,1.492,0,1,1-2.985,0V13.954A8.964,8.964,0,0,1,11.954,5H47.771a8.964,8.964,0,0,1,8.954,8.954V31.863A8.964,8.964,0,0,1,47.771,40.817ZM19.416,16.939a4.477,4.477,0,1,0,4.477,4.477,4.477,4.477,0,0,0-4.477-4.477m0-2.985a7.462,7.462,0,1,1-7.462,7.462,7.462,7.462,0,0,1,7.462-7.462Zm7.462,20.893H11.954a5.976,5.976,0,0,0-5.969,5.969A2.988,2.988,0,0,0,8.969,43.8H29.863a2.988,2.988,0,0,0,2.985-2.985,5.976,5.976,0,0,0-5.969-5.969m0-2.985a8.954,8.954,0,0,1,8.954,8.954,5.969,5.969,0,0,1-5.969,5.969H8.969A5.969,5.969,0,0,1,3,40.817a8.954,8.954,0,0,1,8.954-8.954Z" transform="translate(-3 -5)" fill="#fff"/>
</svg>
